<svg width="291" height="291" viewBox="0 0 291 291" fill="none" xmlns="http://www.w3.org/2000/svg">
<circle cx="145.5" cy="145.5" r="135" fill="white" stroke="url(#paint0_radial_13_7)" stroke-width="21"/>
<path d="M61.7684 111.448H72.5684C76.1844 111.448 79.3204 112.12 81.9764 113.464C84.6324 114.808 86.6644 116.728 88.0724 119.224C89.5124 121.72 90.2324 124.664 90.2324 128.056C90.2324 133.624 88.6164 137.848 85.3844 140.728C82.1844 143.576 77.6884 145 71.8964 145H61.7684V111.448ZM71.8484 140.92C76.3284 140.92 79.6884 139.816 81.9284 137.608C84.1684 135.4 85.2884 132.216 85.2884 128.056C85.2884 124.216 84.1844 121.176 81.9764 118.936C79.8004 116.696 76.6804 115.576 72.6164 115.576H66.6644V140.92H71.8484ZM95.5184 111.448H100.462V145H95.5184V111.448ZM123.522 145.72C120.066 145.72 116.994 145 114.306 143.56C111.618 142.12 109.522 140.088 108.018 137.464C106.514 134.808 105.762 131.736 105.762 128.248C105.762 124.76 106.514 121.688 108.018 119.032C109.522 116.376 111.618 114.328 114.306 112.888C116.994 111.448 120.066 110.728 123.522 110.728C128.162 110.728 132.018 111.88 135.09 114.184V118.888C132.306 116.456 128.594 115.24 123.954 115.24C121.426 115.24 119.154 115.768 117.138 116.824C115.122 117.88 113.538 119.4 112.386 121.384C111.266 123.336 110.706 125.624 110.706 128.248C110.706 130.872 111.266 133.176 112.386 135.16C113.506 137.144 115.058 138.664 117.042 139.72C119.026 140.776 121.266 141.304 123.762 141.304C126.674 141.304 129.058 140.712 130.914 139.528V130.744H124.53V126.76H135.81V142.12C134.306 143.368 132.53 144.28 130.482 144.856C128.466 145.432 126.146 145.72 123.522 145.72ZM141.081 111.448H146.025V145H141.081V111.448ZM160.78 115.576H150.364V111.448H176.14V115.576H165.724V145H160.78V115.576ZM186.888 111.448H191.592L204.984 145H199.992L196.632 136.648H181.8L178.536 145H173.496L186.888 111.448ZM195.288 132.568L189.24 116.872L183.192 132.568H195.288ZM210.268 111.448H215.164V140.92H232.156V145H210.268V111.448Z" fill="#009DFF"/>
<path d="M58.9794 154.448H71.8914C75.5074 154.448 78.3554 155.36 80.4354 157.184C82.5474 158.976 83.6034 161.536 83.6034 164.864C83.6034 168.256 82.5634 170.832 80.4834 172.592C78.4034 174.32 75.5394 175.184 71.8914 175.184H63.8754V188H58.9794V154.448ZM71.3634 171.104C73.6034 171.104 75.3794 170.64 76.6914 169.712C78.0034 168.784 78.6594 167.168 78.6594 164.864C78.6594 162.56 78.0034 160.944 76.6914 160.016C75.3794 159.056 73.6034 158.576 71.3634 158.576H63.8754V171.104H71.3634ZM103.902 188.72C100.574 188.72 97.5661 188 94.8781 186.56C92.1901 185.088 90.0781 183.024 88.5421 180.368C87.0061 177.712 86.2381 174.672 86.2381 171.248C86.2381 167.824 87.0061 164.784 88.5421 162.128C90.0781 159.472 92.1901 157.408 94.8781 155.936C97.5661 154.464 100.574 153.728 103.902 153.728C107.23 153.728 110.238 154.464 112.926 155.936C115.614 157.408 117.726 159.472 119.262 162.128C120.798 164.784 121.566 167.824 121.566 171.248C121.566 174.672 120.798 177.712 119.262 180.368C117.726 183.024 115.614 185.088 112.926 186.56C110.238 188 107.23 188.72 103.902 188.72ZM103.902 184.304C106.27 184.304 108.414 183.776 110.334 182.72C112.286 181.632 113.822 180.112 114.942 178.16C116.062 176.176 116.622 173.872 116.622 171.248C116.622 168.656 116.062 166.384 114.942 164.432C113.854 162.448 112.35 160.928 110.43 159.872C108.51 158.784 106.366 158.24 103.998 158.24C101.598 158.24 99.4221 158.768 97.4701 159.824C95.5501 160.88 94.0141 162.4 92.8621 164.384C91.7421 166.368 91.1821 168.656 91.1821 171.248C91.1821 173.872 91.7421 176.176 92.8621 178.16C93.9821 180.112 95.5021 181.632 97.4221 182.72C99.3741 183.776 101.534 184.304 103.902 184.304ZM126.854 154.448H140.342C143.926 154.448 146.678 155.312 148.598 157.04C150.518 158.768 151.478 161.296 151.478 164.624C151.478 167.088 150.822 169.184 149.51 170.912C148.198 172.608 146.342 173.76 143.942 174.368L151.334 188H146.246L139.094 174.752H131.75V188H126.854V154.448ZM139.526 170.624C141.67 170.624 143.366 170.128 144.614 169.136C145.894 168.112 146.534 166.608 146.534 164.624C146.534 162.448 145.91 160.896 144.662 159.968C143.446 159.04 141.734 158.576 139.526 158.576H131.75V170.624H139.526ZM163.569 158.576H153.153V154.448H178.929V158.576H168.513V188H163.569V158.576ZM189.677 154.448H194.381L207.773 188H202.781L199.421 179.648H184.589L181.325 188H176.285L189.677 154.448ZM198.077 175.568L192.029 159.872L185.981 175.568H198.077ZM213.058 154.448H217.954V183.92H234.946V188H213.058V154.448Z" fill="#0034B8"/>
<defs>
<radialGradient id="paint0_radial_13_7" cx="0" cy="0" r="1" gradientUnits="userSpaceOnUse" gradientTransform="translate(195 55.5) rotate(126.598) scale(210.502)">
<stop offset="0.1875" stop-color="#00D5FF"/>
<stop offset="0.6875" stop-color="#0034B8"/>
<stop offset="0.875" stop-color="#00B3FF"/>
</radialGradient>
</defs>
</svg>
